<svg width="50" height="51" viewBox="0 0 50 51" fill="none" xmlns="http://www.w3.org/2000/svg">
<g id="logo/instagram">
<path id="Vector" d="M34.1151 7.27271C36.5304 7.27992 38.8447 8.24259 40.5526 9.95046C42.2605 11.6583 43.2231 13.9726 43.2304 16.3879V34.6165C43.2231 37.0317 42.2605 39.3461 40.5526 41.0539C38.8447 42.7618 36.5304 43.7245 34.1151 43.7317H15.8866C13.4713 43.7245 11.157 42.7618 9.44912 41.0539C7.74124 39.3461 6.77858 37.0317 6.77136 34.6165V16.3879C6.77858 13.9726 7.74124 11.6583 9.44912 9.95046C11.157 8.24259 13.4713 7.27992 15.8866 7.27271H34.1151ZM34.1151 3.6272H15.8866C8.86804 3.6272 3.12585 9.36938 3.12585 16.3879V34.6165C3.12585 41.635 8.86804 47.3772 15.8866 47.3772H34.1151C41.1337 47.3772 46.8759 41.635 46.8759 34.6165V16.3879C46.8759 9.36938 41.1337 3.6272 34.1151 3.6272Z" fill="black"/>
<path id="Vector_2" d="M36.8565 16.4036C36.3141 16.4036 35.7839 16.2428 35.333 15.9415C34.882 15.6401 34.5305 15.2119 34.323 14.7108C34.1154 14.2097 34.0611 13.6584 34.1669 13.1264C34.2728 12.5945 34.5339 12.1059 34.9174 11.7224C35.3009 11.3389 35.7896 11.0777 36.3215 10.9719C36.8534 10.8661 37.4048 10.9204 37.9059 11.1279C38.4069 11.3355 38.8352 11.687 39.1365 12.1379C39.4378 12.5889 39.5987 13.119 39.5987 13.6614C39.5994 14.0217 39.529 14.3787 39.3915 14.7117C39.254 15.0448 39.052 15.3474 38.7972 15.6022C38.5424 15.857 38.2398 16.0589 37.9068 16.1964C37.5737 16.334 37.2168 16.4044 36.8565 16.4036Z" fill="black"/>
<path id="Vector_3" d="M25.0004 18.207C26.4426 18.207 27.8524 18.6347 29.0516 19.436C30.2507 20.2372 31.1854 21.3761 31.7373 22.7085C32.2892 24.0409 32.4336 25.5071 32.1523 26.9216C31.8709 28.3361 31.1764 29.6354 30.1566 30.6552C29.1368 31.675 27.8375 32.3695 26.423 32.6509C25.0085 32.9323 23.5423 32.7879 22.2098 32.2359C20.8774 31.684 19.7386 30.7494 18.9373 29.5502C18.136 28.3511 17.7084 26.9412 17.7084 25.499C17.7104 23.5657 18.4794 21.7122 19.8464 20.3451C21.2135 18.978 23.067 18.2091 25.0004 18.207ZM25.0004 14.5615C22.8371 14.5615 20.7225 15.203 18.9238 16.4048C17.1252 17.6067 15.7233 19.3149 14.8954 21.3134C14.0676 23.312 13.851 25.5112 14.273 27.6328C14.6951 29.7545 15.7368 31.7034 17.2664 33.233C18.796 34.7626 20.7449 35.8043 22.8666 36.2264C24.9882 36.6484 27.1874 36.4318 29.186 35.604C31.1845 34.7761 32.8927 33.3742 34.0946 31.5756C35.2964 29.7769 35.9379 27.6623 35.9379 25.499C35.9379 22.5982 34.7855 19.8162 32.7344 17.765C30.6832 15.7139 27.9012 14.5615 25.0004 14.5615Z" fill="black"/>
</g>
</svg>
