<svg width="50" height="51" viewBox="0 0 50 51" fill="none" xmlns="http://www.w3.org/2000/svg">
<path id="snapchat-[#136]" fill-rule="evenodd" clip-rule="evenodd" d="M25.3138 50.5C22.0963 50.5 20.6939 49.738 17.9589 47.6769C15.4839 45.813 13.8963 44.7884 9.30133 45.7444C7.50883 46.1172 7.54384 45.9464 7.15884 44.0611C6.95384 43.0679 6.80633 42.4633 6.45633 42.4048C2.72383 41.7923 0.516323 40.8868 0.0763231 39.7925C-0.133677 39.2652 0.116357 38.8504 0.501357 38.7812C5.36886 37.9291 9.30388 33.6285 11.0114 29.392C11.0164 29.3814 11.0189 29.3704 11.0239 29.3625C11.4564 28.4305 11.5414 27.6262 11.2814 26.9712C10.6939 25.496 8.80138 25.1871 7.44388 24.612C6.50888 24.2179 4.97134 23.3875 5.17634 22.2425C5.36384 21.1934 6.96134 20.5276 7.81634 20.9537C9.96384 22.0268 11.6838 21.6986 12.1988 21.1927C12.1738 20.6788 12.4989 20.1225 12.4989 19.6006C12.4989 15.9713 11.6289 11.4556 12.7139 8.8674C17.3964 -2.31631 33.0163 -2.26021 37.6738 8.86226C38.7588 11.4532 38.4913 15.9711 38.2763 19.6058L38.2663 19.7793C38.2363 20.2719 38.2089 20.7375 38.1864 21.1901C38.2864 21.2887 38.6889 21.6297 39.5114 21.6643C40.2089 21.635 41.0138 21.3957 41.8988 20.9537C42.9413 20.4345 44.8188 21.2308 44.8388 22.4237C44.8488 22.9802 44.4614 23.8105 42.5539 24.612C41.2014 25.1818 39.3038 25.496 38.7188 26.9712C38.4563 27.6262 38.5414 28.4306 38.9739 29.3599C38.9789 29.3705 38.9814 29.3814 38.9864 29.392C39.1189 29.7249 42.3313 37.5244 49.4963 38.7812C49.7988 38.8345 50.0164 39.1219 49.9989 39.4468C49.9914 39.564 49.9664 39.6805 49.9189 39.795C49.4814 40.8841 47.2764 41.7872 43.5414 42.3996C43.1914 42.4582 43.0439 43.0629 42.8414 44.0508C42.5339 45.5526 42.5814 46.0691 40.6964 45.675C36.1514 44.7324 34.4289 45.8718 32.0413 47.6692C30.2813 48.9953 28.2913 50.5 25.3138 50.5Z" fill="black"/>
</svg>
